<mxfile host="app.diagrams.net" agent="Mozilla/5.0 (X11; Linux x86_64) AppleWebKit/537.36 (KHTML, like Gecko) Chrome/126.0.0.0 Safari/537.36" version="24.7.16">
  <diagram name="Page-1" id="xdbdUsmO_gZyoiDEBH-T">
    <mxGraphModel dx="2911" dy="1175" grid="1" gridSize="10" guides="1" tooltips="1" connect="1" arrows="1" fold="1" page="1" pageScale="1" pageWidth="850" pageHeight="1100" math="0" shadow="0">
      <root>
        <mxCell id="0" />
        <mxCell id="1" parent="0" />
        <mxCell id="yEEzD0z_jnbcdLMA-1Y5-46" value="" style="rounded=1;whiteSpace=wrap;html=1;" vertex="1" parent="1">
          <mxGeometry x="590" y="550" width="360" height="540" as="geometry" />
        </mxCell>
        <mxCell id="yEEzD0z_jnbcdLMA-1Y5-45" value="" style="rounded=1;whiteSpace=wrap;html=1;" vertex="1" parent="1">
          <mxGeometry x="-430" y="580" width="540" height="540" as="geometry" />
        </mxCell>
        <mxCell id="yEEzD0z_jnbcdLMA-1Y5-2" value="" style="fontColor=#0066CC;verticalAlign=top;verticalLabelPosition=bottom;labelPosition=center;align=center;html=1;outlineConnect=0;fillColor=#CCCCCC;strokeColor=#6881B3;gradientColor=none;gradientDirection=north;strokeWidth=2;shape=mxgraph.networks.firewall;" vertex="1" parent="1">
          <mxGeometry x="330" y="350" width="110" height="100" as="geometry" />
        </mxCell>
        <mxCell id="yEEzD0z_jnbcdLMA-1Y5-3" value="" style="fontColor=#0066CC;verticalAlign=top;verticalLabelPosition=bottom;labelPosition=center;align=center;html=1;outlineConnect=0;fillColor=#CCCCCC;strokeColor=#6881B3;gradientColor=none;gradientDirection=north;strokeWidth=2;shape=mxgraph.networks.mobile;" vertex="1" parent="1">
          <mxGeometry x="-350" y="615" width="50" height="100" as="geometry" />
        </mxCell>
        <mxCell id="yEEzD0z_jnbcdLMA-1Y5-4" value="" style="fontColor=#0066CC;verticalAlign=top;verticalLabelPosition=bottom;labelPosition=center;align=center;html=1;outlineConnect=0;fillColor=#CCCCCC;strokeColor=#6881B3;gradientColor=none;gradientDirection=north;strokeWidth=2;shape=mxgraph.networks.tablet;" vertex="1" parent="1">
          <mxGeometry x="-330" y="895" width="100" height="70" as="geometry" />
        </mxCell>
        <mxCell id="yEEzD0z_jnbcdLMA-1Y5-6" value="" style="fontColor=#0066CC;verticalAlign=top;verticalLabelPosition=bottom;labelPosition=center;align=center;html=1;outlineConnect=0;fillColor=#CCCCCC;strokeColor=#6881B3;gradientColor=none;gradientDirection=north;strokeWidth=2;shape=mxgraph.networks.laptop;" vertex="1" parent="1">
          <mxGeometry x="-410" y="780" width="120" height="55" as="geometry" />
        </mxCell>
        <mxCell id="yEEzD0z_jnbcdLMA-1Y5-7" value="" style="fontColor=#0066CC;verticalAlign=top;verticalLabelPosition=bottom;labelPosition=center;align=center;html=1;outlineConnect=0;fillColor=#CCCCCC;strokeColor=#6881B3;gradientColor=none;gradientDirection=north;strokeWidth=2;shape=mxgraph.networks.modem;" vertex="1" parent="1">
          <mxGeometry x="120" y="190" width="100" height="30" as="geometry" />
        </mxCell>
        <mxCell id="yEEzD0z_jnbcdLMA-1Y5-8" value="" style="fontColor=#0066CC;verticalAlign=top;verticalLabelPosition=bottom;labelPosition=center;align=center;html=1;outlineConnect=0;fillColor=#CCCCCC;strokeColor=#6881B3;gradientColor=none;gradientDirection=north;strokeWidth=2;shape=mxgraph.networks.server;" vertex="1" parent="1">
          <mxGeometry x="710" y="669" width="90" height="100" as="geometry" />
        </mxCell>
        <mxCell id="yEEzD0z_jnbcdLMA-1Y5-10" value="" style="fontColor=#0066CC;verticalAlign=top;verticalLabelPosition=bottom;labelPosition=center;align=center;html=1;outlineConnect=0;fillColor=#CCCCCC;strokeColor=#6881B3;gradientColor=none;gradientDirection=north;strokeWidth=2;shape=mxgraph.networks.pc;" vertex="1" parent="1">
          <mxGeometry x="-19" y="955" width="100" height="70" as="geometry" />
        </mxCell>
        <mxCell id="yEEzD0z_jnbcdLMA-1Y5-13" value="" style="sketch=0;pointerEvents=1;shadow=0;dashed=0;html=1;strokeColor=none;fillColor=#434445;aspect=fixed;labelPosition=center;verticalLabelPosition=bottom;verticalAlign=top;align=center;outlineConnect=0;shape=mxgraph.vvd.wi_fi;rotation=-135;" vertex="1" parent="1">
          <mxGeometry x="-80" y="705" width="50" height="50" as="geometry" />
        </mxCell>
        <mxCell id="yEEzD0z_jnbcdLMA-1Y5-14" value="" style="sketch=0;pointerEvents=1;shadow=0;dashed=0;html=1;strokeColor=none;fillColor=#434445;aspect=fixed;labelPosition=center;verticalLabelPosition=bottom;verticalAlign=top;align=center;outlineConnect=0;shape=mxgraph.vvd.ethernet_port;" vertex="1" parent="1">
          <mxGeometry x="6" y="780" width="50" height="50" as="geometry" />
        </mxCell>
        <mxCell id="yEEzD0z_jnbcdLMA-1Y5-16" value="" style="sketch=0;outlineConnect=0;fontColor=#232F3E;gradientColor=none;fillColor=#8C4FFF;strokeColor=none;dashed=0;verticalLabelPosition=bottom;verticalAlign=top;align=center;html=1;fontSize=12;fontStyle=0;aspect=fixed;pointerEvents=1;shape=mxgraph.aws4.customer_gateway;" vertex="1" parent="1">
          <mxGeometry x="-8" y="685" width="78" height="78" as="geometry" />
        </mxCell>
        <mxCell id="yEEzD0z_jnbcdLMA-1Y5-20" value="Wireless Router (AP mode)" style="text;html=1;align=center;verticalAlign=middle;whiteSpace=wrap;rounded=0;" vertex="1" parent="1">
          <mxGeometry x="0.5" y="639" width="61" height="35" as="geometry" />
        </mxCell>
        <mxCell id="yEEzD0z_jnbcdLMA-1Y5-21" value="" style="endArrow=none;dashed=1;html=1;dashPattern=1 3;strokeWidth=2;rounded=0;entryX=0;entryY=1;entryDx=0;entryDy=0;entryPerimeter=0;" edge="1" parent="1" target="yEEzD0z_jnbcdLMA-1Y5-2">
          <mxGeometry width="50" height="50" relative="1" as="geometry">
            <mxPoint x="328.5355339059329" y="448.5355339059329" as="sourcePoint" />
            <mxPoint x="450" y="570" as="targetPoint" />
            <Array as="points" />
          </mxGeometry>
        </mxCell>
        <mxCell id="yEEzD0z_jnbcdLMA-1Y5-22" value="" style="endArrow=none;dashed=1;html=1;dashPattern=1 3;strokeWidth=2;rounded=0;" edge="1" parent="1" source="yEEzD0z_jnbcdLMA-1Y5-14" target="yEEzD0z_jnbcdLMA-1Y5-10">
          <mxGeometry width="50" height="50" relative="1" as="geometry">
            <mxPoint x="200" y="735" as="sourcePoint" />
            <mxPoint x="250" y="685" as="targetPoint" />
            <Array as="points" />
          </mxGeometry>
        </mxCell>
        <mxCell id="yEEzD0z_jnbcdLMA-1Y5-23" value="" style="endArrow=none;dashed=1;html=1;dashPattern=1 3;strokeWidth=2;rounded=0;entryX=1;entryY=0.5;entryDx=0;entryDy=0;entryPerimeter=0;" edge="1" parent="1" source="yEEzD0z_jnbcdLMA-1Y5-13" target="yEEzD0z_jnbcdLMA-1Y5-3">
          <mxGeometry width="50" height="50" relative="1" as="geometry">
            <mxPoint x="200" y="735" as="sourcePoint" />
            <mxPoint x="250" y="685" as="targetPoint" />
          </mxGeometry>
        </mxCell>
        <mxCell id="yEEzD0z_jnbcdLMA-1Y5-24" value="" style="endArrow=none;dashed=1;html=1;dashPattern=1 3;strokeWidth=2;rounded=0;entryX=0.5;entryY=0;entryDx=0;entryDy=0;entryPerimeter=0;" edge="1" parent="1" source="yEEzD0z_jnbcdLMA-1Y5-13" target="yEEzD0z_jnbcdLMA-1Y5-4">
          <mxGeometry width="50" height="50" relative="1" as="geometry">
            <mxPoint x="200" y="735" as="sourcePoint" />
            <mxPoint x="250" y="685" as="targetPoint" />
          </mxGeometry>
        </mxCell>
        <mxCell id="yEEzD0z_jnbcdLMA-1Y5-25" value="" style="endArrow=none;dashed=1;html=1;dashPattern=1 3;strokeWidth=2;rounded=0;" edge="1" parent="1" source="yEEzD0z_jnbcdLMA-1Y5-13" target="yEEzD0z_jnbcdLMA-1Y5-6">
          <mxGeometry width="50" height="50" relative="1" as="geometry">
            <mxPoint x="200" y="735" as="sourcePoint" />
            <mxPoint x="250" y="685" as="targetPoint" />
          </mxGeometry>
        </mxCell>
        <mxCell id="yEEzD0z_jnbcdLMA-1Y5-26" value="Proxmox" style="text;html=1;align=center;verticalAlign=middle;whiteSpace=wrap;rounded=0;" vertex="1" parent="1">
          <mxGeometry x="725" y="639" width="60" height="30" as="geometry" />
        </mxCell>
        <mxCell id="yEEzD0z_jnbcdLMA-1Y5-27" value="" style="endArrow=none;dashed=1;html=1;dashPattern=1 3;strokeWidth=2;rounded=0;entryX=0;entryY=0;entryDx=0;entryDy=0;entryPerimeter=0;" edge="1" parent="1" source="yEEzD0z_jnbcdLMA-1Y5-7" target="yEEzD0z_jnbcdLMA-1Y5-2">
          <mxGeometry width="50" height="50" relative="1" as="geometry">
            <mxPoint x="400" y="620" as="sourcePoint" />
            <mxPoint x="450" y="570" as="targetPoint" />
          </mxGeometry>
        </mxCell>
        <mxCell id="yEEzD0z_jnbcdLMA-1Y5-28" value="" style="endArrow=none;dashed=1;html=1;dashPattern=1 3;strokeWidth=2;rounded=0;exitX=1;exitY=1;exitDx=0;exitDy=0;exitPerimeter=0;" edge="1" parent="1" source="yEEzD0z_jnbcdLMA-1Y5-2" target="yEEzD0z_jnbcdLMA-1Y5-8">
          <mxGeometry width="50" height="50" relative="1" as="geometry">
            <mxPoint x="380" y="450" as="sourcePoint" />
            <mxPoint x="450" y="570" as="targetPoint" />
            <Array as="points">
              <mxPoint x="440" y="720" />
            </Array>
          </mxGeometry>
        </mxCell>
        <mxCell id="yEEzD0z_jnbcdLMA-1Y5-29" value="Pfsense Firewall" style="text;html=1;align=center;verticalAlign=middle;whiteSpace=wrap;rounded=0;" vertex="1" parent="1">
          <mxGeometry x="355" y="320" width="60" height="30" as="geometry" />
        </mxCell>
        <mxCell id="yEEzD0z_jnbcdLMA-1Y5-31" value="" style="group" vertex="1" connectable="0" parent="1">
          <mxGeometry x="715" y="890" width="120" height="100" as="geometry" />
        </mxCell>
        <mxCell id="yEEzD0z_jnbcdLMA-1Y5-19" value="" style="verticalLabelPosition=bottom;html=1;verticalAlign=top;align=center;strokeColor=none;fillColor=#00BEF2;shape=mxgraph.azure.virtual_machine;" vertex="1" parent="yEEzD0z_jnbcdLMA-1Y5-31">
          <mxGeometry width="80" height="70" as="geometry" />
        </mxCell>
        <mxCell id="yEEzD0z_jnbcdLMA-1Y5-30" value="Alpine (Test VM)&lt;div&gt;192.168.2.10&lt;/div&gt;" style="text;html=1;align=center;verticalAlign=middle;whiteSpace=wrap;rounded=0;" vertex="1" parent="yEEzD0z_jnbcdLMA-1Y5-31">
          <mxGeometry x="-15" y="70" width="110" height="30" as="geometry" />
        </mxCell>
        <mxCell id="yEEzD0z_jnbcdLMA-1Y5-32" value="" style="endArrow=none;dashed=1;html=1;dashPattern=1 3;strokeWidth=2;rounded=0;exitX=0.5;exitY=0;exitDx=0;exitDy=0;exitPerimeter=0;entryX=0.5;entryY=1;entryDx=0;entryDy=0;entryPerimeter=0;" edge="1" parent="1" source="yEEzD0z_jnbcdLMA-1Y5-19" target="yEEzD0z_jnbcdLMA-1Y5-8">
          <mxGeometry width="50" height="50" relative="1" as="geometry">
            <mxPoint x="715" y="890" as="sourcePoint" />
            <mxPoint x="710" y="780" as="targetPoint" />
          </mxGeometry>
        </mxCell>
        <mxCell id="yEEzD0z_jnbcdLMA-1Y5-34" value="SKT modem" style="text;html=1;align=center;verticalAlign=middle;whiteSpace=wrap;rounded=0;" vertex="1" parent="1">
          <mxGeometry x="140" y="160" width="60" height="30" as="geometry" />
        </mxCell>
        <mxCell id="yEEzD0z_jnbcdLMA-1Y5-35" value="192.168.1.1" style="text;html=1;align=center;verticalAlign=middle;whiteSpace=wrap;rounded=0;" vertex="1" parent="1">
          <mxGeometry x="261.5" y="430" width="60" height="30" as="geometry" />
        </mxCell>
        <mxCell id="yEEzD0z_jnbcdLMA-1Y5-38" value="" style="endArrow=none;dashed=1;html=1;dashPattern=1 3;strokeWidth=2;rounded=0;" edge="1" parent="1" source="yEEzD0z_jnbcdLMA-1Y5-16">
          <mxGeometry width="50" height="50" relative="1" as="geometry">
            <mxPoint x="270" y="609" as="sourcePoint" />
            <mxPoint x="330" y="450" as="targetPoint" />
            <Array as="points">
              <mxPoint x="330" y="720" />
            </Array>
          </mxGeometry>
        </mxCell>
        <mxCell id="yEEzD0z_jnbcdLMA-1Y5-43" value="192.168.1.0/24&lt;div&gt;(DHCP)&lt;/div&gt;" style="text;html=1;align=center;verticalAlign=middle;whiteSpace=wrap;rounded=0;" vertex="1" parent="1">
          <mxGeometry x="-180" y="590" width="60" height="30" as="geometry" />
        </mxCell>
        <mxCell id="yEEzD0z_jnbcdLMA-1Y5-47" value="192.168&lt;span style=&quot;color: rgba(0, 0, 0, 0); font-family: monospace; font-size: 0px; text-align: start; text-wrap: nowrap;&quot;&gt;%3CmxGraphModel%3E%3Croot%3E%3CmxCell%20id%3D%220%22%2F%3E%3CmxCell%20id%3D%221%22%20parent%3D%220%22%2F%3E%3CmxCell%20id%3D%222%22%20value%3D%22192.168.1.1%22%20style%3D%22text%3Bhtml%3D1%3Balign%3Dcenter%3BverticalAlign%3Dmiddle%3BwhiteSpace%3Dwrap%3Brounded%3D0%3B%22%20vertex%3D%221%22%20parent%3D%221%22%3E%3CmxGeometry%20x%3D%22261.5%22%20y%3D%22430%22%20width%3D%2260%22%20height%3D%2230%22%20as%3D%22geometry%22%2F%3E%3C%2FmxCell%3E%3C%2Froot%3E%3C%2FmxGraphModel%3E&lt;/span&gt;.2.1" style="text;html=1;align=center;verticalAlign=middle;whiteSpace=wrap;rounded=0;" vertex="1" parent="1">
          <mxGeometry x="450" y="430" width="60" height="30" as="geometry" />
        </mxCell>
        <mxCell id="yEEzD0z_jnbcdLMA-1Y5-48" value="192.168&lt;span style=&quot;color: rgba(0, 0, 0, 0); font-family: monospace; font-size: 0px; text-align: start; text-wrap: nowrap;&quot;&gt;%3CmxGraphModel%3E%3Croot%3E%3CmxCell%20id%3D%220%22%2F%3E%3CmxCell%20id%3D%221%22%20parent%3D%220%22%2F%3E%3CmxCell%20id%3D%222%22%20value%3D%22192.168.1.1%22%20style%3D%22text%3Bhtml%3D1%3Balign%3Dcenter%3BverticalAlign%3Dmiddle%3BwhiteSpace%3Dwrap%3Brounded%3D0%3B%22%20vertex%3D%221%22%20parent%3D%221%22%3E%3CmxGeometry%20x%3D%22261.5%22%20y%3D%22430%22%20width%3D%2260%22%20height%3D%2230%22%20as%3D%22geometry%22%2F%3E%3C%2FmxCell%3E%3C%2Froot%3E%3C%2FmxGraphModel%3E&lt;/span&gt;.2.2" style="text;html=1;align=center;verticalAlign=middle;whiteSpace=wrap;rounded=0;" vertex="1" parent="1">
          <mxGeometry x="640" y="720" width="60" height="30" as="geometry" />
        </mxCell>
        <mxCell id="yEEzD0z_jnbcdLMA-1Y5-49" value="192.168&lt;span style=&quot;color: rgba(0, 0, 0, 0); font-family: monospace; font-size: 0px; text-align: start; text-wrap: nowrap;&quot;&gt;%3CmxGraphModel%3E%3Croot%3E%3CmxCell%20id%3D%220%22%2F%3E%3CmxCell%20id%3D%221%22%20parent%3D%220%22%2F%3E%3CmxCell%20id%3D%222%22%20value%3D%22192.168.1.1%22%20style%3D%22text%3Bhtml%3D1%3Balign%3Dcenter%3BverticalAlign%3Dmiddle%3BwhiteSpace%3Dwrap%3Brounded%3D0%3B%22%20vertex%3D%221%22%20parent%3D%221%22%3E%3CmxGeometry%20x%3D%22261.5%22%20y%3D%22430%22%20width%3D%2260%22%20height%3D%2230%22%20as%3D%22geometry%22%2F%3E%3C%2FmxCell%3E%3C%2Froot%3E%3C%2FmxGraphModel%3E&lt;/span&gt;.2.0/24&lt;div&gt;(DHCP + static)&lt;/div&gt;" style="text;html=1;align=center;verticalAlign=middle;whiteSpace=wrap;rounded=0;" vertex="1" parent="1">
          <mxGeometry x="670" y="560" width="190" height="30" as="geometry" />
        </mxCell>
      </root>
    </mxGraphModel>
  </diagram>
</mxfile>
